<svg xmlns="http://www.w3.org/2000/svg" style="display: none;">
  <symbol id="icon-menu" viewBox="0 0 24 24" fill="none">
    <line x1="3" y1="12" x2="21" y2="12" stroke="currentColor" stroke-width="2" stroke-linecap="round" stroke-linejoin="round"></line>
    <line x1="3" y1="6" x2="21" y2="6" stroke="currentColor" stroke-width="2" stroke-linecap="round" stroke-linejoin="round"></line>
    <line x1="3" y1="18" x2="21" y2="18" stroke="currentColor" stroke-width="2" stroke-linecap="round" stroke-linejoin="round"></line>
  </symbol>

  <symbol id="icon-wallet" viewBox="0 0 24 24" fill="none">
    <path d="M5 21C4.45 21 3.97917 20.8042 3.5875 20.4125C3.19583 20.0208 3 19.55 3 19V5C3 4.45 3.19583 3.97917 3.5875 3.5875C3.97917 3.19583 4.45 3 5 3H19C19.55 3 20.0208 3.19583 20.4125 3.5875C20.8042 3.97917 21 4.45 21 5V7.5H19V5H5V19H19V16.5H21V19C21 19.55 20.8042 20.0208 20.4125 20.4125C20.0208 20.8042 19.55 21 19 21H5ZM13 17C12.45 17 11.9792 16.8042 11.5875 16.4125C11.1958 16.0208 11 15.55 11 15V9C11 8.45 11.1958 7.97917 11.5875 7.5875C11.9792 7.19583 12.45 7 13 7H20C20.55 7 21.0208 7.19583 21.4125 7.5875C21.8042 7.97917 22 8.45 22 9V15C22 15.55 21.8042 16.0208 21.4125 16.4125C21.0208 16.8042 20.55 17 20 17H13ZM20 15V9H13V15H20ZM16 13.5C16.4167 13.5 16.7708 13.3542 17.0625 13.0625C17.3542 12.7708 17.5 12.4167 17.5 12C17.5 11.5833 17.3542 11.2292 17.0625 10.9375C16.7708 10.6458 16.4167 10.5 16 10.5C15.5833 10.5 15.2292 10.6458 14.9375 10.9375C14.6458 11.2292 14.5 11.5833 14.5 12C14.5 12.4167 14.6458 12.7708 14.9375 13.0625C15.2292 13.3542 15.5833 13.5 16 13.5Z" fill="currentColor"/>
  </symbol>

  <symbol id="icon-chevron" viewBox="0 0 16 16" fill="none">
    <path d="M11.06 5.53125L8 8.58458L4.94 5.53125L4 6.47125L8 10.4713L12 6.47125L11.06 5.53125Z" fill="currentColor"/>
  </symbol>

  <symbol id="icon-cart" viewBox="0 0 20 20" fill="none">
    <path d="M14.55 11C15.3 11 15.96 10.59 16.3 9.97L19.88 3.48C20.25 2.82 19.77 2 19.01 2H4.21L3.27 0H0V2H2L5.6 9.59L4.25 12.03C3.52 13.37 4.48 15 6 15H18V13H6L7.1 11H14.55ZM5.16 4H17.31L14.55 9H7.53L5.16 4ZM6 16C4.9 16 4.01 16.9 4.01 18C4.01 19.1 4.9 20 6 20C7.1 20 8 19.1 8 18C8 16.9 7.1 16 6 16ZM16 16C14.9 16 14.01 16.9 14.01 18C14.01 19.1 14.9 20 16 20C17.1 20 18 19.1 18 18C18 16.9 17.1 16 16 16Z" fill="currentColor"/>
  </symbol>

  <symbol id="icon-user-circle" viewBox="0 0 24 24" fill="none">
    <path d="M12 2C6.48 2 2 6.48 2 12C2 17.52 6.48 22 12 22C17.52 22 22 17.52 22 12C22 6.48 17.52 2 12 2ZM7.07 18.28C7.5 17.38 10.12 16.5 12 16.5C13.88 16.5 16.51 17.38 16.93 18.28C15.57 19.36 13.86 20 12 20C10.14 20 8.43 19.36 7.07 18.28ZM18.36 16.83C16.93 15.09 13.46 14.5 12 14.5C10.54 14.5 7.07 15.09 5.64 16.83C4.62 15.49 4 13.82 4 12C4 7.59 7.59 4 12 4C16.41 4 20 7.59 20 12C20 13.82 19.38 15.49 18.36 16.83ZM12 6C10.06 6 8.5 7.56 8.5 9.5C8.5 11.44 10.06 13 12 13C13.94 13 15.5 11.44 15.5 9.5C15.5 7.56 13.94 6 12 6ZM12 11C11.17 11 10.5 10.33 10.5 9.5C10.5 8.67 11.17 8 12 8C12.83 8 13.5 8.67 13.5 9.5C13.5 10.33 12.83 11 12 11Z" fill="currentColor"/>
  </symbol>

  <symbol id="icon-close" viewBox="0 0 24 24" fill="none">
    <line x1="18" y1="6" x2="6" y2="18" stroke="currentColor" stroke-width="2"></line>
    <line x1="6" y1="6" x2="18" y2="18" stroke="currentColor" stroke-width="2"></line>
  </symbol>

  <symbol id="icon-logout" viewBox="0 0 18 18" fill="none">
    <path d="M2 2H8C8.55 2 9 1.55 9 1C9 0.45 8.55 0 8 0H2C0.9 0 0 0.9 0 2V16C0 17.1 0.9 18 2 18H8C8.55 18 9 17.55 9 17C9 16.45 8.55 16 8 16H2V2Z" fill="currentColor"/>
    <path d="M17.65 8.65L14.86 5.86C14.54 5.54 14 5.76 14 6.21V8H7C6.45 8 6 8.45 6 9C6 9.55 6.45 10 7 10H14V11.79C14 12.24 14.54 12.46 14.85 12.14L17.64 9.35C17.84 9.16 17.84 8.84 17.65 8.65Z" fill="currentColor"/>
  </symbol>

   <symbol id="nav-prev" viewBox="0 0 24 24">
    <path d="M15 18l-6-6 6-6" stroke="currentColor" stroke-width="2.5" stroke-linecap="round" stroke-linejoin="round" fill="none"/>
  </symbol>

  <symbol id="nav-next" viewBox="0 0 24 24">
    <path d="M9 18l6-6-6-6" stroke="currentColor" stroke-width="2.5" stroke-linecap="round" stroke-linejoin="round" fill="none"/>
  </symbol>

  <symbol id="icon-arrow-right" viewBox="0 0 24 24" fill="none">
    <line x1="5" y1="12" x2="19" y2="12" stroke="currentColor" stroke-width="3" stroke-linecap="round" stroke-linejoin="round"></line>
    <polyline points="12 5 19 12 12 19" stroke="currentColor" stroke-width="3" stroke-linecap="round" stroke-linejoin="round"></polyline>
  </symbol>

  <symbol id="logo-mastercard" viewBox="0 0 49 30">
    <path d="M30.8313 26.793H17.7063V3.20722H30.8313V26.793Z" fill="#F1511B"/>
    <path d="M18.5399 15C18.5399 10.215 20.7803 5.95362 24.269 3.20704C21.7176 1.19842 18.498 0 14.999 0C6.71533 0 0 6.71567 0 15C0 23.284 6.71533 30 14.999 30C18.498 30 21.7176 28.8016 24.269 26.7928C20.7803 24.0462 18.5399 19.7847 18.5399 15Z" fill="#E71B25"/>
    <path d="M48.5378 15C48.5378 23.284 41.8223 30 33.5389 30C30.0399 30 26.8205 28.8016 24.269 26.7928C27.7577 24.0462 29.9979 19.7847 29.9979 15C29.9979 10.215 27.7577 5.95362 24.269 3.20704C26.8205 1.19842 30.0399 0 33.5389 0C41.8223 0 48.5378 6.71567 48.5378 15Z" fill="#F79410"/>
  </symbol>

  <symbol id="logo-visa" viewBox="0 0 75 24">
    <path d="M32.1348 23.6539H26.1278L29.8854 0.421171H35.8924L32.1348 23.6539ZM53.9124 0.989203C52.7266 0.518234 50.8486 0 48.5233 0C42.5906 0 38.4135 3.16343 38.3873 7.68574C38.3384 11.023 41.3786 12.8765 43.6524 13.989C45.9768 15.1259 46.7669 15.8678 46.7669 16.8814C46.7432 18.4378 44.8889 19.1553 43.1595 19.1553C40.7607 19.1553 39.4753 18.7856 37.5222 17.9196L36.7313 17.5482L35.8907 22.7643C37.3002 23.4058 39.8956 23.9755 42.5906 24C48.8938 24 52.9975 20.8855 53.0464 16.0661C53.0701 13.4209 51.4647 11.3944 48.0042 9.73842C45.9026 8.67494 44.6163 7.95836 44.6163 6.87125C44.6408 5.88205 45.7051 4.86921 48.0768 4.86921C50.029 4.82026 51.4639 5.28954 52.5502 5.75882L53.0946 6.00612L53.9124 0.989203ZM61.8961 15.4238C62.3907 14.0886 64.2948 8.92309 64.2948 8.92309C64.2695 8.97289 64.7886 7.5642 65.0848 6.69822L65.5052 8.70026C65.5052 8.70026 66.6429 14.2624 66.8894 15.423L61.8961 15.4238ZM69.3118 0.420327H64.6654C63.2322 0.420327 62.1434 0.83981 61.5256 2.34809L52.6016 23.6531H58.9057C58.9057 23.6531 59.9439 20.7851 60.1658 20.1673H67.8794C68.0516 20.9834 68.596 23.6531 68.596 23.6531H74.1582L69.3118 0.420327ZM6.31334 3.44196C4.46492 2.3616 2.35738 1.49309 0 0.889608L0.0987516 0.420327H9.76374C11.0745 0.469281 12.1372 0.888764 12.4832 2.37341L14.5832 13.0479L14.584 13.0496L15.2271 16.2628L21.11 0.420327H27.4622L18.02 23.6295H11.667L6.31334 3.44196Z" fill="#1A1F71"/>
  </symbol>

  <symbol id="logo-googlepay" viewBox="0 0 81 32">
    <path d="M38.0553 15.6036V24.9601H35.0376V1.82031H42.8861C44.7967 1.82031 46.6067 2.52324 48.0173 3.83158C49.4263 5.03772 50.1308 6.84927 50.1308 8.76147C50.1308 10.6737 49.4278 12.383 48.0173 13.6914C46.6083 14.9997 44.899 15.7026 42.8861 15.7026L38.0553 15.6036ZM38.0553 4.63672V12.6865H43.0874C44.1945 12.6865 45.3015 12.2824 46.006 11.4804C47.6163 9.97232 47.6163 7.45627 46.1051 5.94664L46.006 5.84442C45.2009 5.03929 44.1945 4.53608 43.0874 4.63829H38.0553V4.63672Z" fill="#5F6368"/>
    <path d="M57.0718 8.66016C59.2859 8.66016 60.9952 9.26243 62.3036 10.4717C63.6119 11.6778 64.2142 13.2881 64.2142 15.301V24.961H61.3978V22.7469H61.2987C60.0926 24.5585 58.3801 25.4642 56.3689 25.4642C54.6595 25.4642 53.1483 24.961 51.9422 23.9562C50.8351 22.9498 50.1306 21.5408 50.1306 20.0327C50.1306 18.4224 50.7345 17.1172 51.9422 16.1092C53.1483 15.1028 54.8576 14.7003 56.8721 14.7003C58.6836 14.7003 60.0926 15.0022 61.1981 15.7067V15.0038C61.1981 13.9973 60.7971 12.9925 59.992 12.3871C59.1868 11.6841 58.1804 11.28 57.0733 11.28C55.364 11.28 54.0557 11.9829 53.1499 13.3935L50.5332 11.7832C52.1419 9.665 54.2554 8.66016 57.0718 8.66016ZM53.2489 20.1286C53.2489 20.9338 53.6499 21.6367 54.2554 22.0393C54.9583 22.5425 55.7634 22.8444 56.5686 22.8444C57.7747 22.8444 58.984 22.3412 59.8882 21.437C60.8946 20.5296 61.3962 19.4257 61.3962 18.2164C60.492 17.5135 59.1821 17.1094 57.4728 17.1094C56.2666 17.1094 55.2586 17.4113 54.4551 18.0136C53.6499 18.5184 53.2489 19.2229 53.2489 20.1286Z" fill="#5F6368"/>
    <path d="M80.5136 9.16406L70.5548 32.0004H67.5339L71.2577 24.0528L64.7175 9.26313H67.9381L72.6651 20.631H72.7658L77.3937 9.26313H80.5136V9.16406Z" fill="#5F6368"/>
    <path d="M26.0852 13.5884C26.0852 12.6811 25.983 11.7769 25.8839 10.8711H13.3083V16.0023H20.4508C20.1489 17.6125 19.2447 19.1206 17.8341 20.0264V23.346H22.1601C24.6746 21.0328 26.0852 17.611 26.0852 13.5884Z" fill="#4285F4"/>
    <path d="M13.3053 26.5663C16.9268 26.5663 19.9445 25.3602 22.1602 23.3458L17.8341 20.0262C16.628 20.8313 15.1168 21.3345 13.3084 21.3345C9.88657 21.3345 6.86888 19.0213 5.86403 15.8008H1.4342V19.2226C3.7474 23.7499 8.27629 26.5663 13.3053 26.5663Z" fill="#34A853"/>
    <path d="M5.86083 15.803C5.25698 14.1927 5.25698 12.3812 5.86083 10.6718V7.25H1.43415C-0.47805 10.9738 -0.47805 15.4004 1.43415 19.2233L5.86083 15.803Z" fill="#FBBC04"/>
    <path d="M13.3052 5.23864C15.2174 5.23864 17.029 5.94156 18.4364 7.24991L22.2608 3.42708C19.8454 1.21453 16.6264 -0.0938172 13.4058 0.00525236C8.37373 0.00525236 3.74892 2.82166 1.53479 7.35055L5.96147 10.7692C6.86725 7.55341 9.88494 5.23864 13.3052 5.23864Z" fill="#EA4335"/>
  </symbol>

  <symbol id="logo-satispay" viewBox="0 0 32 32">
    <path d="M31.969 14.2697C31.792 9.16212 30.453 5.04923 27.427 2.80366C24.401 0.558078 19.854 -0.219468 14.141 0.0517221C11.542 0.17681 9.20296 0.516048 7.30196 1.27658C5.34396 2.06313 3.82796 3.17392 2.71896 4.717C0.489957 7.81818 -0.198043 12.5035 0.0469569 17.8983C0.280957 23.0219 1.60396 27.0767 4.66696 29.2863C7.71396 31.4858 12.662 32.1843 17.881 31.9601C22.944 31.746 27.058 30.407 29.261 27.3369C31.459 24.2717 32.157 19.7536 31.969 14.2707V14.2697ZM8.80196 19.6955H8.14096V18.2775H8.80196C10.062 18.2775 10.984 17.3028 10.984 16.094C10.984 14.8901 10.01 13.9105 8.80196 13.9105H6.67196C6.59396 13.9105 6.52596 13.9625 6.50496 14.0355V21.775H5.12996V14.0355C5.12996 13.1859 5.82296 12.4925 6.67196 12.4925H8.80196C10.792 12.4925 12.437 14.1086 12.437 16.094C12.437 18.0854 10.901 19.6955 8.80196 19.6955ZM20.406 19.6955H19.015V15.9899C18.984 14.9422 17.874 13.8994 16.692 13.8994C15.364 13.8994 14.39 15.0352 14.39 16.094C14.39 17.6 15.447 18.2885 16.692 18.2885H17.187V19.6955H16.692C14.645 19.6955 12.978 18.3816 12.978 16.094C12.978 14.2337 14.645 12.4925 16.692 12.4925C18.546 12.4925 20.348 14.0506 20.406 15.9899V19.6955ZM22.172 12.7316L23.985 16.4532L23.199 18.0534L20.6 12.7316H22.172ZM23.854 22.0302H22.276L26.844 12.7316H28.422L23.854 22.0302Z" fill="currentColor"/>
  </symbol>

  <symbol id="icon-search" viewBox="0 0 24 24" fill="none">
    <circle cx="11" cy="11" r="7" stroke="currentColor" stroke-width="2"/>
    <line x1="16.5" y1="16.5" x2="21" y2="21" stroke="currentColor" stroke-width="2" stroke-linecap="round"/>
  </symbol>


</svg>

